<svg id="Layer_1" data-name="Layer 1" xmlns="http://www.w3.org/2000/svg" xmlns:xlink="http://www.w3.org/1999/xlink" viewBox="0 0 365.67 120.33"><defs><style>.cls-1{fill:url(#linear-gradient);}</style><linearGradient id="linear-gradient" x1="98.81" y1="-338.74" x2="-2.37" y2="-334.87" gradientTransform="matrix(1, 0, 0, -1, 0, -274.78)" gradientUnits="userSpaceOnUse"><stop offset="0" stop-color="#7e21ea"/><stop offset="0.26" stop-color="#9e3aa8"/><stop offset="0.51" stop-color="#bb506e"/><stop offset="0.73" stop-color="#d06044"/><stop offset="0.9" stop-color="#dd6a2a"/><stop offset="1" stop-color="#e26e20"/></linearGradient></defs><title>logoOrinoco</title><path d="M152.49,62.49c-.3,7.8-3.7,14.2-9.3,19.6-4.3,4.1-9.2,6.8-15.2,7.2-7.3.5-13.3-2.8-16.9-10.5a34.26,34.26,0,0,1-2.6-21.4,22.31,22.31,0,0,1,6.1-12c2.4-2.5,4.4-5.4,7.6-7.1a21,21,0,0,1,10.6-3,11.67,11.67,0,0,1,3.7.8,30.56,30.56,0,0,1,4.3,1.3A16,16,0,0,1,150,48a1.27,1.27,0,0,1,.1.6c-.2,3.7,1.3,7.1,1.9,10.6A13.93,13.93,0,0,1,152.49,62.49Zm-37-13.6c0,.2-.1.3-.1.5a1.05,1.05,0,0,0-.4,1.3c.4-.4.8-.6.8-1a1.42,1.42,0,0,0,.2-.6c.3.1.4-.2.6-.4a26.29,26.29,0,0,1,9.8-7.3c.7.1.9-.2.9-.9a7.26,7.26,0,0,0-.9.5h-.8c-.5-.3-.8,0-1.1.4a5.64,5.64,0,0,0-1.2.4c-3.2,1.5-6.2,3.1-7.6,6.7C115.39,48.39,115.29,48.49,115.49,48.89Zm16.6,34.2a2.92,2.92,0,0,1-.9.2c-.7-.2-1,.3-1.6.6a1.82,1.82,0,0,0,1.6.1,5.92,5.92,0,0,0,1.9-.1.67.67,0,0,0,1.1-.2c5.5-1,9.2-4.3,11.4-9.3.3-.1.5-.3.3-.6a2.92,2.92,0,0,0,.2-.9c.7-.5.7-1.1.3-2a3.3,3.3,0,0,0-.8,1.7.35.35,0,0,1-.1.2c-.3.1-.5.2-.4.5-.2.3-.5.6-.7.9-2.5,2.5-4.7,5.2-7.8,7a.42.42,0,0,0-.6.3c-1.1.4-2.2.9-3.3,1.3C132.29,82.69,132.19,82.79,132.09,83.09ZM143,65.79a32.28,32.28,0,0,0-4.9-17.7,9.75,9.75,0,0,0-3.3-3.4c-.7-.4-1.4.1-2-.3a5.06,5.06,0,0,0-4-.3,16.34,16.34,0,0,0-5.3,2.6,8.31,8.31,0,0,0-3.8,6.5c-.4,5.5-.6,11.1,1,16.5a16.56,16.56,0,0,0,4.6,8,5.3,5.3,0,0,0,4.3,1.6,29.39,29.39,0,0,0,7.1-1.7c2-.9,3.9-1.8,4.8-4A17.67,17.67,0,0,0,143,65.79Z"/><path d="M264.41,93.69c-2.39-.5-4.89-.1-7.19-1-7.66-3.1-10.71-9.5-8.49-17.6,1.84-6.8,6.09-11.7,11.62-15.4a6.39,6.39,0,0,1,5-1,17,17,0,0,0,3.87.4c3.14.1,5.63,2.2,7.76,4.3,2.95,3,4.52,7.1,5.44,11.3s-.83,8.1-3.14,11.5c-1.56,2.3-3.78,3.9-5.72,5.7a7.8,7.8,0,0,1-4.89,1.8Zm.28-7.9a21.05,21.05,0,0,0,6.55-1.2,16.08,16.08,0,0,0,1.94-.9c3.21-2.16,2.9-5.53,1.85-8.5a19.81,19.81,0,0,0-11.54-8.3c-2.55,0-4,.6-6.66,3.5-.18.3-.28.6-.46.9-2.4,5-2.29,10.2,1.68,12.8A13.17,13.17,0,0,0,264.69,85.79Zm11.82.6c-.1-.1-.1-.2-.19-.3-.83.7-1.66,1.4-2.58,2.1.09.1.18.2.18.3C275.12,88.29,275.77,87.29,276.51,86.39Z"/><path d="M275.86,77.28a62,62,0,0,1,1.08,8.34c.81,1.83.79,3,1.78,5,1.15,2,2.4,3,5.49,4a12.62,12.62,0,0,0,1.47.69,2.18,2.18,0,0,0,2.07.07c.65-.42-.14-1.11,0-1.69a.41.41,0,0,0,.18-.16c.67,0,1.44.27,1.88-.5s-.19-1.3-.68-1.78A35.12,35.12,0,0,1,283.85,81a36.69,36.69,0,0,1-1.93-7.39l0-.09"/><path d="M302.18,63.39c1.6-1.2,3-2.3,4.6-3.3a19.72,19.72,0,0,1,10.8-3.4c2.7,0,4,1.5,4.7,3.6a39.26,39.26,0,0,1,1.5,9.7,64.83,64.83,0,0,1,.33,7.53c.18,2.15.18,3.88.18,6.06-.28,1.94-.65,1.94-1.5,3.47a35.91,35.91,0,0,1-3,3.14c-.56.44-1.2.9-1.8.7s-.2-1.1-.5-1.6a.35.35,0,0,1-.2-.1c-.6.2-1.2.7-1.8.1s-.2-1.3.1-1.9a22.7,22.7,0,0,0-.6-19.7v-.1c-1.8-3.5-3.8-4.2-7.3-2.5-1.6.7-3.1,1.6-4.6,2.4a1.55,1.55,0,0,0-.9,1.5,49.9,49.9,0,0,0,1.8,14.9c.1.5.4,1,.5,1.4.8,2.3-1.2,5.9-3.7,6.3a.93.93,0,0,1-1.2-.6,18.94,18.94,0,0,0-.9-2.1c-.2-.6-.6-.6-.9-.1a8.6,8.6,0,0,1-2,1.8c-.8.4-1.4.5-1.6-.7a112.4,112.4,0,0,1-1.3-11.5,102.1,102.1,0,0,1,.5-17.5,8.7,8.7,0,0,1,4.1-6.5,1.05,1.05,0,0,1,1.2-.3c.5.2.4.7.4,1.1,0,.9-.1,1.9-.1,2.8,0,.3-.1.6.2.8s.5-.1.8-.2c.7-.5,1.4-1.3,2.3-.8s.5,1.6.5,2.5A7.45,7.45,0,0,0,302.18,63.39Z"/><path d="M322.72,62.3c1.6-1.2,3.26-2.56,4.86-3.56a19.72,19.72,0,0,1,10.8-3.4c2.7,0,4,1.5,4.7,3.6a39.26,39.26,0,0,1,1.5,9.7,38.61,38.61,0,0,1,.1,7.6c-.2,2,.4,4,.7,6a2.9,2.9,0,0,1-1.3,3.3,8.29,8.29,0,0,0-2.4,2.2,11.41,11.41,0,0,1-1.1,1.1,1.93,1.93,0,0,1-1.8.7c-.7-.2-.2-1.1-.5-1.6a.35.35,0,0,1-.2-.1c-.6.2-1.2.7-1.8.1s-.2-1.3.1-1.9a22.7,22.7,0,0,0-.6-19.7v-.1c-1.8-3.5-3.8-4.2-7.3-2.5-1.6.7-3.1,1.6-4.6,2.4a1.48,1.48,0,0,0-.9,1.5c.39,4.91.3,9.33,1,14.54.1.5-5.86,8.39-7,6.36-1.15-3.8,1.65-7.64,1.35-11.44-.4-5.9-1.08-15.43-.71-15.25C318.39,61.16,322.62,61.1,322.72,62.3Z"/><path d="M227.89,83.29a22.46,22.46,0,0,0,12-3.8c1.4-.9,2.3-2.4,3.8-3.2.4-.2.8-.7,1.2-.3s.2.9,0,1.3a13,13,0,0,1-4.2,5.6c-3.2,2.3-6.1,4.9-9.4,6.9a20.88,20.88,0,0,1-4.8,2.2c-2.4.8-4.7.2-6.9-.8a29.89,29.89,0,0,1-11-8.9,9.93,9.93,0,0,1-.5-12.3c3.5-5.3,7.6-10.1,13.7-12.6,3.1-1.2,6.1-2.5,9.5-2.4,1.7,0,3.5-.6,5.3-.3.5.1.8-.3,1.1-.7a12.4,12.4,0,0,1,2.8-2.8c.4-.3.7-.6,1.2-.4s.6.7.6,1.2c0,1.2,0,2.3-.1,3.5a4.79,4.79,0,0,0,.1,2.9c.4.7-.1,1.4-.6,1.9a5.18,5.18,0,0,0-1.1,2.8,5.47,5.47,0,0,1-.9,2.8,1.45,1.45,0,0,0,.5,2.2c.7.5.6.9,0,1.4-1.1,1-2.1,2.1-3.2,3-.5.4-.8,1.3-1.6.8s-1.8-1.2-1.5-2.3a44,44,0,0,0,.5-5.1c.3-2-.1-2.8-1.9-3.6a14.72,14.72,0,0,0-2.2-1,7.11,7.11,0,0,0-6.6,1,51.07,51.07,0,0,0-8.3,7.1,4.82,4.82,0,0,0-1.5,2.8,2.94,2.94,0,0,0,.6,2.4c1.5,1.7,2.9,3.6,4.4,5.2A10.75,10.75,0,0,0,227.89,83.29Z"/><path d="M166.79,59.39c-.1,1.3-.3,2.5-.4,3.7,0,.4-.3,1,.2,1.3s.7-.3,1-.6c2.2-2,4.4-3.8,7.3-4.6,2.7-.7,5.3-.9,7.8.8a4.35,4.35,0,0,0,.7.4,5.18,5.18,0,0,1,3.7,3.6c.4,1.2.5,2.4.8,3.6.1.6-.1.9-.8.9s-1.1.4-1.4,1.1a27.18,27.18,0,0,1-1.1,2.5,1.5,1.5,0,0,1-1.4,1c-.6-.1-.7-.6-.7-1.2,0-.3,0-.6-.3-.6-1.3,0-1.9-1.2-2.8-1.9a6,6,0,0,0-3.9-1.2,14.88,14.88,0,0,0-8.2,2.2,2.09,2.09,0,0,0-1,2.3c.2,3.6,1.4,7,2.5,10.3a1.73,1.73,0,0,1-.1,1.7c-.5.7,0,1.5.2,2.2a27.27,27.27,0,0,1,1,4.1c0,.7,1.1,1.2.4,2.1a11.92,11.92,0,0,1-3.6,3.8c-.6.4-1.1.2-1.6-.3a9.19,9.19,0,0,1-1.6-2.7c-.4-1.1-.9-1-1.5-.2a5.5,5.5,0,0,1-1.9,1.5c-.7.2-1.2.2-1.5-.7a13,13,0,0,1-.8-3.4c-.3-2.3-.6-4.7-.7-7.1-.1-3.2-1-6.2-1.4-9.3-.3-2.3-.7-4.5-.8-6.8a2.22,2.22,0,0,1,.1-.9c2.2-1.3,2.2-4.1,4-5.7a11.51,11.51,0,0,1,1.7-1.4c.4-.2.9-.5,1.2-.2.8,1.1,1.3.2,1.9-.2.3-.3.9-.9,1,.2.1.8.4.7.9.3C166.09,59.79,166.19,59.49,166.79,59.39Z"/><path d="M201.79,69a65.57,65.57,0,0,0,1.7,18.7,1.94,1.94,0,0,1-.3,1.3,9.21,9.21,0,0,1-6,4.7,1,1,0,0,1-1-.2c-.2-.2-.4-.5-.6-.5-1.6.4-1.4-.7-1.7-1.7a30.92,30.92,0,0,1-.9-6.8c-.1-5.7-.6-11.4-.6-17.1a7.8,7.8,0,0,1,3.8-6.8,10.44,10.44,0,0,0,2-1.5c.5-.6.9-.4,1.1.3s.4.8,1,.4c.9-.5,1.3-.1,1.3.9C201.69,63.59,201.79,66.29,201.79,69Z"/><path class="cls-1" d="M51.63,28a11,11,0,0,0-10.12,6.31c-.82,1.95-1.63,3.92-2.45,5.89H36.41c-6.53,0-12.2,4.87-12.2,11.59V84.09a12.22,12.22,0,0,0,12.2,12.2H80.35a12.23,12.23,0,0,0,12.2-12.2V51.76c0-6.72-5.67-11.59-12.2-11.59H77.7l-2.42-5.82A10.84,10.84,0,0,0,65.12,28Zm6.75,24.4A14.64,14.64,0,1,1,43.73,67,14.67,14.67,0,0,1,58.38,52.37Zm19.53,0a2.44,2.44,0,1,1-2.45,2.44A2.44,2.44,0,0,1,77.91,52.37Z"/></svg>